<svg width="197" height="54" viewBox="0 0 197 54" fill="none" xmlns="http://www.w3.org/2000/svg">
<path d="M67.7988 17.5178L63.6573 28.9512H72.0819L67.9404 17.5178H67.7988ZM60.0821 38.8625H56.4716L66.029 13.5178H69.7103L79.2677 38.8625H75.6571L73.2147 31.9954H62.56L60.0821 38.8625ZM89.2965 36.4555C90.9012 36.4555 92.211 35.8773 93.2257 34.721C94.2876 33.5647 94.8186 32.0544 94.8186 30.1901C94.8186 28.373 94.2876 26.8745 93.2257 25.6946C92.1874 24.5147 90.8776 23.9247 89.2965 23.9247C87.739 23.9247 86.4293 24.5147 85.3674 25.6946C84.3055 26.8745 83.7745 28.373 83.7745 30.1901C83.7745 32.0308 84.3055 33.5293 85.3674 34.6856C86.4293 35.8655 87.739 36.4555 89.2965 36.4555ZM88.7656 39.4289C86.5001 39.4289 84.5533 38.5322 82.925 36.7387C81.3203 34.9216 80.5179 32.7388 80.5179 30.1901C80.5179 27.6415 81.3203 25.4586 82.925 23.6416C84.5533 21.8481 86.5001 20.9513 88.7656 20.9513C90.0399 20.9513 91.1962 21.2227 92.2346 21.7655C93.2965 22.3082 94.1106 23.028 94.677 23.9247H94.8186L94.677 21.5177V13.5178H97.9336V38.8625H94.8186V36.4555H94.677C94.1106 37.3522 93.2965 38.072 92.2346 38.6148C91.1962 39.1575 90.0399 39.4289 88.7656 39.4289ZM115.359 34.0485C115.359 35.5588 114.699 36.8331 113.377 37.8714C112.056 38.9097 110.392 39.4289 108.386 39.4289C106.64 39.4289 105.106 38.9805 103.784 38.0838C102.463 37.1635 101.519 35.9599 100.953 34.4732L103.855 33.2343C104.28 34.2727 104.894 35.0868 105.696 35.6768C106.522 36.2431 107.419 36.5263 108.386 36.5263C109.424 36.5263 110.286 36.3021 110.97 35.8537C111.678 35.4054 112.032 34.8744 112.032 34.2609C112.032 33.1517 111.183 32.3376 109.483 31.8184L106.51 31.0751C103.135 30.2255 101.448 28.5972 101.448 26.1902C101.448 24.6091 102.085 23.3466 103.36 22.4026C104.658 21.4351 106.309 20.9513 108.315 20.9513C109.849 20.9513 111.23 21.3171 112.457 22.0487C113.708 22.7802 114.581 23.7596 115.076 24.9867L112.174 26.1902C111.843 25.4586 111.301 24.8923 110.545 24.4911C109.814 24.0663 108.988 23.8539 108.068 23.8539C107.218 23.8539 106.451 24.0663 105.767 24.4911C105.106 24.9159 104.776 25.435 104.776 26.0486C104.776 27.0397 105.708 27.7477 107.572 28.1725L110.191 28.845C113.637 29.6946 115.359 31.429 115.359 34.0485ZM118.548 38.8625V13.5178H123.185V38.8625H118.548ZM130.093 19.0045C129.692 19.0045 129.303 18.9337 128.925 18.7921C128.571 18.6269 128.253 18.4145 127.97 18.1549C127.71 17.8717 127.498 17.5532 127.332 17.1992C127.191 16.8452 127.12 16.4558 127.12 16.0311C127.12 15.6063 127.191 15.2169 127.332 14.8629C127.498 14.509 127.71 14.2022 127.97 13.9426C128.253 13.6594 128.571 13.447 128.925 13.3054C129.303 13.1403 129.692 13.0577 130.093 13.0577C130.919 13.0577 131.627 13.3526 132.217 13.9426C132.807 14.509 133.102 15.2051 133.102 16.0311C133.102 16.857 132.807 17.565 132.217 18.1549C131.627 18.7213 130.919 19.0045 130.093 19.0045ZM127.793 38.8625V21.5177H132.43V38.8625H127.793ZM138.763 25.4822H135.718V21.5177H138.763V16.2081H143.4V21.5177H147.647V25.4822H143.4V32.2078C143.4 32.609 143.435 32.9865 143.506 33.3405C143.6 33.6709 143.765 33.9541 144.001 34.1901C144.332 34.5676 144.804 34.7564 145.417 34.7564C145.818 34.7564 146.137 34.721 146.373 34.6502C146.609 34.5558 146.833 34.4378 147.046 34.2963L148.355 38.367C147.813 38.6266 147.223 38.8154 146.585 38.9333C145.972 39.0749 145.288 39.1457 144.532 39.1457C143.659 39.1457 142.869 39.0159 142.161 38.7564C141.476 38.4732 140.898 38.0956 140.426 37.6236C139.317 36.5617 138.763 35.0514 138.763 33.0927V25.4822ZM154.169 19.0045C153.768 19.0045 153.379 18.9337 153.001 18.7921C152.647 18.6269 152.329 18.4145 152.046 18.1549C151.786 17.8717 151.574 17.5532 151.408 17.1992C151.267 16.8452 151.196 16.4558 151.196 16.0311C151.196 15.6063 151.267 15.2169 151.408 14.8629C151.574 14.509 151.786 14.2022 152.046 13.9426C152.329 13.6594 152.647 13.447 153.001 13.3054C153.379 13.1403 153.768 13.0577 154.169 13.0577C154.995 13.0577 155.703 13.3526 156.293 13.9426C156.883 14.509 157.178 15.2051 157.178 16.0311C157.178 16.857 156.883 17.565 156.293 18.1549C155.703 18.7213 154.995 19.0045 154.169 19.0045ZM151.869 38.8625V21.5177H156.506V38.8625H151.869ZM177.387 34.4378C176.632 35.9009 175.57 37.1045 174.201 38.0484C172.856 38.9687 171.169 39.4289 169.139 39.4289C167.794 39.4289 166.555 39.2047 165.423 38.7564C164.313 38.2844 163.346 37.6354 162.52 36.8095C161.718 35.9835 161.08 35.016 160.608 33.9069C160.16 32.7742 159.936 31.5352 159.936 30.1901C159.936 28.845 160.16 27.6061 160.608 26.4734C161.08 25.3406 161.718 24.3731 162.52 23.5708C163.346 22.7448 164.313 22.1077 165.423 21.6593C166.555 21.1873 167.794 20.9513 169.139 20.9513C171.145 20.9513 172.832 21.4115 174.201 22.3318C175.57 23.2522 176.573 24.4439 177.21 25.907L172.962 27.6769C172.561 26.8745 172.042 26.2728 171.405 25.8716C170.791 25.4468 170.012 25.2345 169.068 25.2345C168.455 25.2345 167.877 25.3524 167.334 25.5884C166.791 25.8244 166.307 26.1548 165.883 26.5796C165.481 27.0043 165.163 27.5235 164.927 28.1371C164.691 28.7506 164.573 29.435 164.573 30.1901C164.573 30.9453 164.691 31.6296 164.927 32.2432C165.163 32.8567 165.481 33.3759 165.883 33.8007C166.307 34.2255 166.791 34.5558 167.334 34.7918C167.877 35.0278 168.455 35.1458 169.068 35.1458C170.036 35.1458 170.85 34.9334 171.511 34.5086C172.195 34.0603 172.738 33.4231 173.139 32.5972L177.387 34.4378ZM187.437 39.4289C186.304 39.4289 185.29 39.2873 184.393 39.0041C183.52 38.721 182.753 38.3552 182.092 37.9068C181.455 37.4348 180.912 36.9039 180.464 36.3139C180.015 35.7004 179.673 35.0868 179.437 34.4732L183.579 32.7034C183.98 33.6001 184.511 34.2727 185.172 34.721C185.856 35.1458 186.611 35.3582 187.437 35.3582C188.287 35.3582 188.959 35.2048 189.455 34.898C189.95 34.5912 190.198 34.2255 190.198 33.8007C190.198 33.3287 189.986 32.9511 189.561 32.668C189.16 32.3612 188.452 32.0898 187.437 31.8538L184.995 31.3228C184.452 31.2049 183.886 31.0161 183.296 30.7565C182.729 30.4969 182.21 30.1665 181.738 29.7654C181.266 29.3642 180.877 28.8804 180.57 28.314C180.263 27.7477 180.11 27.0869 180.11 26.3318C180.11 25.4822 180.287 24.7271 180.641 24.0663C181.018 23.4056 181.526 22.851 182.163 22.4026C182.8 21.9307 183.543 21.5767 184.393 21.3407C185.266 21.0811 186.198 20.9513 187.189 20.9513C188.841 20.9513 190.316 21.2817 191.614 21.9425C192.912 22.5796 193.868 23.6062 194.481 25.0221L190.481 26.6504C190.151 25.966 189.667 25.4704 189.03 25.1637C188.393 24.8569 187.756 24.7035 187.118 24.7035C186.458 24.7035 185.88 24.8451 185.384 25.1283C184.888 25.3878 184.641 25.73 184.641 26.1548C184.641 26.556 184.841 26.8745 185.242 27.1105C185.667 27.3465 186.234 27.5589 186.942 27.7477L189.596 28.3848C191.366 28.8096 192.676 29.494 193.525 30.4379C194.399 31.3582 194.835 32.4556 194.835 33.7299C194.835 34.485 194.658 35.2048 194.304 35.8891C193.95 36.5735 193.443 37.1871 192.782 37.7298C192.145 38.249 191.366 38.662 190.446 38.9687C189.549 39.2755 188.546 39.4289 187.437 39.4289Z" fill="#001EC0"/>
<path d="M23.8605 0L43.5905 35.3063C44.8099 37.4884 42.4402 39.9183 40.2282 38.7541L23.8605 30.1395L7.49277 38.7541C5.28075 39.9183 2.91107 37.4884 4.13047 35.3063L23.8605 0Z" fill="#95D5FA"/>
<path d="M23.8605 11.3024L43.5905 46.6087C44.8099 48.7908 42.4402 51.2207 40.2282 50.0565L23.8605 41.4419L7.49277 50.0565C5.28075 51.2207 2.91107 48.7908 4.13047 46.6087L23.8605 11.3024Z" fill="url(#paint0_linear_601_322)"/>
<defs>
<linearGradient id="paint0_linear_601_322" x1="23.8605" y1="51.4884" x2="23.8605" y2="15.0698" gradientUnits="userSpaceOnUse">
<stop stop-color="#1A2B88"/>
<stop offset="1" stop-color="#1A2B88" stop-opacity="0"/>
</linearGradient>
</defs>
</svg>
